<svg width="15" height="15" viewBox="0 0 15 15" fill="none" xmlns="http://www.w3.org/2000/svg">
<path fill-rule="evenodd" clip-rule="evenodd" d="M13.9275 4.36408L11.2671 1.128C11.2004 1.0473 11.1018 1 10.9944 1H4.00848C3.90114 1 3.8025 1.0473 3.73577 1.128L1.07543 4.36409C1.02611 4.42252 1 4.49487 1 4.56999V13.6661C1 13.8497 1.15666 14 1.34814 14H13.6519C13.8433 14 14 13.8497 14 13.6661V4.57C14 4.49566 13.9745 4.42337 13.9275 4.36408ZM12.9817 4.29174H7.84959V1.66781H10.8262L12.9817 4.29173V4.29174ZM7.15332 1.66781H4.17675L2.0212 4.29173H7.15332V1.66781ZM1.69627 13.3322V4.95955H13.3037V13.3322H1.69627ZM4.11291 7.32192H11.2323C11.4238 7.32192 11.5804 7.47218 11.5804 7.65583C11.5804 7.83946 11.4238 7.98973 11.2323 7.98973H4.11291C3.92144 7.98973 3.76477 7.83947 3.76477 7.65583C3.76477 7.47217 3.92144 7.32192 4.11291 7.32192ZM9.88038 8.88849H5.46485C5.27337 8.88849 5.11672 9.03874 5.11672 9.22239C5.11672 9.40603 5.27337 9.5563 5.46485 9.5563H9.87749C10.069 9.5563 10.2256 9.40603 10.2256 9.22239C10.2256 9.03874 10.0719 8.88849 9.88038 8.88849ZM5.46485 10.4523H9.88038C10.0719 10.4523 10.2256 10.6025 10.2256 10.7862C10.2256 10.9698 10.069 11.1201 9.87749 11.1201H5.46485C5.27337 11.1201 5.11672 10.9698 5.11672 10.7862C5.11672 10.6025 5.27337 10.4523 5.46485 10.4523Z" fill="#7E859B"/>
<path d="M11.2671 1.128L11.383 1.03274L11.3827 1.03241L11.2671 1.128ZM13.9275 4.36408L14.045 4.27084L14.0433 4.26882L13.9275 4.36408ZM3.73577 1.128L3.62017 1.03241L3.6199 1.03274L3.73577 1.128ZM1.07543 4.36409L1.19006 4.46085L1.1913 4.45934L1.07543 4.36409ZM14 4.57H14.15V4.56994L14 4.57ZM7.84959 4.29174H7.69959V4.44174H7.84959V4.29174ZM12.9817 4.29174V4.44174H13.1317V4.29174H12.9817ZM7.84959 1.66781V1.51781H7.69959V1.66781H7.84959ZM10.8262 1.66781L10.9421 1.57259L10.8971 1.51781H10.8262V1.66781ZM12.9817 4.29173H13.1317V4.23802L13.0976 4.19651L12.9817 4.29173ZM4.17675 1.66781V1.51781H4.10585L4.06084 1.57259L4.17675 1.66781ZM7.15332 1.66781H7.30332V1.51781H7.15332V1.66781ZM2.0212 4.29173L1.90529 4.19651L1.70385 4.44173H2.0212V4.29173ZM7.15332 4.29173V4.44173H7.30332V4.29173H7.15332ZM1.69627 4.95955V4.80955H1.54627V4.95955H1.69627ZM1.69627 13.3322H1.54627V13.4822H1.69627V13.3322ZM13.3037 4.95955H13.4537V4.80955H13.3037V4.95955ZM13.3037 13.3322V13.4822H13.4537V13.3322H13.3037ZM11.1513 1.22325L13.8116 4.45934L14.0433 4.26882L11.383 1.03274L11.1513 1.22325ZM10.9944 1.15C11.0568 1.15 11.1131 1.17716 11.1515 1.22359L11.3827 1.03241C11.2877 0.917445 11.1467 0.85 10.9944 0.85V1.15ZM4.00848 1.15H10.9944V0.85H4.00848V1.15ZM3.85137 1.22359C3.88976 1.17716 3.9461 1.15 4.00848 1.15V0.85C3.85617 0.85 3.71524 0.917444 3.62017 1.03241L3.85137 1.22359ZM1.1913 4.45934L3.85164 1.22325L3.6199 1.03274L0.959556 4.26883L1.1913 4.45934ZM1.15 4.56999C1.15 4.53015 1.16366 4.49211 1.19005 4.46084L0.9608 4.26734C0.888554 4.35293 0.85 4.45959 0.85 4.56999H1.15ZM1.15 13.6661V4.56999H0.85V13.6661H1.15ZM1.34814 13.85C1.23354 13.85 1.15 13.7611 1.15 13.6661H0.85C0.85 13.9384 1.07978 14.15 1.34814 14.15V13.85ZM13.6519 13.85H1.34814V14.15H13.6519V13.85ZM13.85 13.6661C13.85 13.7611 13.7665 13.85 13.6519 13.85V14.15C13.9202 14.15 14.15 13.9384 14.15 13.6661H13.85ZM13.85 4.57V13.6661H14.15V4.57H13.85ZM13.81 4.45731C13.8364 4.49061 13.85 4.53021 13.85 4.57006L14.15 4.56994C14.15 4.46112 14.1126 4.35613 14.045 4.27085L13.81 4.45731ZM7.84959 4.44174H12.9817V4.14174H7.84959V4.44174ZM7.69959 1.66781V4.29174H7.99959V1.66781H7.69959ZM10.8262 1.51781H7.84959V1.81781H10.8262V1.51781ZM13.0976 4.19651L10.9421 1.57259L10.7102 1.76303L12.8658 4.38695L13.0976 4.19651ZM13.1317 4.29174V4.29173H12.8317V4.29174H13.1317ZM4.17675 1.81781H7.15332V1.51781H4.17675V1.81781ZM2.1371 4.38695L4.29265 1.76303L4.06084 1.57259L1.90529 4.19651L2.1371 4.38695ZM7.15332 4.14173H2.0212V4.44173H7.15332V4.14173ZM7.00332 1.66781V4.29173H7.30332V1.66781H7.00332ZM1.54627 4.95955V13.3322H1.84627V4.95955H1.54627ZM13.3037 4.80955H1.69627V5.10955H13.3037V4.80955ZM13.4537 13.3322V4.95955H13.1537V13.3322H13.4537ZM1.69627 13.4822H13.3037V13.1822H1.69627V13.4822ZM11.2323 7.17192H4.11291V7.47192H11.2323V7.17192ZM11.7304 7.65583C11.7304 7.3835 11.5007 7.17192 11.2323 7.17192V7.47192C11.3469 7.47192 11.4304 7.56086 11.4304 7.65583H11.7304ZM11.2323 8.13973C11.5007 8.13973 11.7304 7.92815 11.7304 7.65583H11.4304C11.4304 7.75078 11.3469 7.83973 11.2323 7.83973V8.13973ZM4.11291 8.13973H11.2323V7.83973H4.11291V8.13973ZM3.61477 7.65583C3.61477 7.92816 3.84456 8.13973 4.11291 8.13973V7.83973C3.99831 7.83973 3.91477 7.75079 3.91477 7.65583H3.61477ZM4.11291 7.17192C3.84456 7.17192 3.61477 7.38349 3.61477 7.65583H3.91477C3.91477 7.56085 3.99832 7.47192 4.11291 7.47192V7.17192ZM5.46485 9.03849H9.88038V8.73849H5.46485V9.03849ZM5.26672 9.22239C5.26672 9.12742 5.35025 9.03849 5.46485 9.03849V8.73849C5.19649 8.73849 4.96672 8.95006 4.96672 9.22239H5.26672ZM5.46485 9.4063C5.35026 9.4063 5.26672 9.31736 5.26672 9.22239H4.96672C4.96672 9.49471 5.19649 9.7063 5.46485 9.7063V9.4063ZM9.87749 9.4063H5.46485V9.7063H9.87749V9.4063ZM10.0756 9.22239C10.0756 9.31736 9.99207 9.4063 9.87749 9.4063V9.7063C10.1458 9.7063 10.3756 9.49471 10.3756 9.22239H10.0756ZM9.88038 9.03849C9.99331 9.03849 10.0756 9.12582 10.0756 9.22239H10.3756C10.3756 8.95166 10.1504 8.73849 9.88038 8.73849V9.03849ZM9.88038 10.3023H5.46485V10.6023H9.88038V10.3023ZM10.3756 10.7862C10.3756 10.5155 10.1504 10.3023 9.88038 10.3023V10.6023C9.99331 10.6023 10.0756 10.6896 10.0756 10.7862H10.3756ZM9.87749 11.2701C10.1458 11.2701 10.3756 11.0585 10.3756 10.7862H10.0756C10.0756 10.8811 9.99207 10.9701 9.87749 10.9701V11.2701ZM5.46485 11.2701H9.87749V10.9701H5.46485V11.2701ZM4.96672 10.7862C4.96672 11.0585 5.19649 11.2701 5.46485 11.2701V10.9701C5.35025 10.9701 5.26672 10.8811 5.26672 10.7862H4.96672ZM5.46485 10.3023C5.19649 10.3023 4.96672 10.5139 4.96672 10.7862H5.26672C5.26672 10.6912 5.35026 10.6023 5.46485 10.6023V10.3023Z" fill="#7E859B"/>
<mask id="mask0" mask-type="alpha" maskUnits="userSpaceOnUse" x="0" y="0" width="15" height="15">
<path fill-rule="evenodd" clip-rule="evenodd" d="M13.9275 4.36408L11.2671 1.128C11.2004 1.0473 11.1018 1 10.9944 1H4.00848C3.90114 1 3.8025 1.0473 3.73577 1.128L1.07543 4.36409C1.02611 4.42252 1 4.49487 1 4.56999V13.6661C1 13.8497 1.15666 14 1.34814 14H13.6519C13.8433 14 14 13.8497 14 13.6661V4.57C14 4.49566 13.9745 4.42337 13.9275 4.36408ZM12.9817 4.29174H7.84959V1.66781H10.8262L12.9817 4.29173V4.29174ZM7.15332 1.66781H4.17675L2.0212 4.29173H7.15332V1.66781ZM1.69627 13.3322V4.95955H13.3037V13.3322H1.69627ZM4.11291 7.32192H11.2323C11.4238 7.32192 11.5804 7.47218 11.5804 7.65583C11.5804 7.83946 11.4238 7.98973 11.2323 7.98973H4.11291C3.92144 7.98973 3.76477 7.83947 3.76477 7.65583C3.76477 7.47217 3.92144 7.32192 4.11291 7.32192ZM9.88038 8.88849H5.46485C5.27337 8.88849 5.11672 9.03874 5.11672 9.22239C5.11672 9.40603 5.27337 9.5563 5.46485 9.5563H9.87749C10.069 9.5563 10.2256 9.40603 10.2256 9.22239C10.2256 9.03874 10.0719 8.88849 9.88038 8.88849ZM5.46485 10.4523H9.88038C10.0719 10.4523 10.2256 10.6025 10.2256 10.7862C10.2256 10.9698 10.069 11.1201 9.87749 11.1201H5.46485C5.27337 11.1201 5.11672 10.9698 5.11672 10.7862C5.11672 10.6025 5.27337 10.4523 5.46485 10.4523Z" fill="white"/>
<path d="M11.2671 1.128L11.383 1.03274L11.3827 1.03241L11.2671 1.128ZM13.9275 4.36408L14.045 4.27084L14.0433 4.26882L13.9275 4.36408ZM3.73577 1.128L3.62017 1.03241L3.6199 1.03274L3.73577 1.128ZM1.07543 4.36409L1.19006 4.46085L1.1913 4.45934L1.07543 4.36409ZM14 4.57H14.15V4.56994L14 4.57ZM7.84959 4.29174H7.69959V4.44174H7.84959V4.29174ZM12.9817 4.29174V4.44174H13.1317V4.29174H12.9817ZM7.84959 1.66781V1.51781H7.69959V1.66781H7.84959ZM10.8262 1.66781L10.9421 1.57259L10.8971 1.51781H10.8262V1.66781ZM12.9817 4.29173H13.1317V4.23802L13.0976 4.19651L12.9817 4.29173ZM4.17675 1.66781V1.51781H4.10585L4.06084 1.57259L4.17675 1.66781ZM7.15332 1.66781H7.30332V1.51781H7.15332V1.66781ZM2.0212 4.29173L1.90529 4.19651L1.70385 4.44173H2.0212V4.29173ZM7.15332 4.29173V4.44173H7.30332V4.29173H7.15332ZM1.69627 4.95955V4.80955H1.54627V4.95955H1.69627ZM1.69627 13.3322H1.54627V13.4822H1.69627V13.3322ZM13.3037 4.95955H13.4537V4.80955H13.3037V4.95955ZM13.3037 13.3322V13.4822H13.4537V13.3322H13.3037ZM11.1513 1.22325L13.8116 4.45934L14.0433 4.26882L11.383 1.03274L11.1513 1.22325ZM10.9944 1.15C11.0568 1.15 11.1131 1.17716 11.1515 1.22359L11.3827 1.03241C11.2877 0.917445 11.1467 0.85 10.9944 0.85V1.15ZM4.00848 1.15H10.9944V0.85H4.00848V1.15ZM3.85137 1.22359C3.88976 1.17716 3.9461 1.15 4.00848 1.15V0.85C3.85617 0.85 3.71524 0.917444 3.62017 1.03241L3.85137 1.22359ZM1.1913 4.45934L3.85164 1.22325L3.6199 1.03274L0.959556 4.26883L1.1913 4.45934ZM1.15 4.56999C1.15 4.53015 1.16366 4.49211 1.19005 4.46084L0.9608 4.26734C0.888554 4.35293 0.85 4.45959 0.85 4.56999H1.15ZM1.15 13.6661V4.56999H0.85V13.6661H1.15ZM1.34814 13.85C1.23354 13.85 1.15 13.7611 1.15 13.6661H0.85C0.85 13.9384 1.07978 14.15 1.34814 14.15V13.85ZM13.6519 13.85H1.34814V14.15H13.6519V13.85ZM13.85 13.6661C13.85 13.7611 13.7665 13.85 13.6519 13.85V14.15C13.9202 14.15 14.15 13.9384 14.15 13.6661H13.85ZM13.85 4.57V13.6661H14.15V4.57H13.85ZM13.81 4.45731C13.8364 4.49061 13.85 4.53021 13.85 4.57006L14.15 4.56994C14.15 4.46112 14.1126 4.35613 14.045 4.27085L13.81 4.45731ZM7.84959 4.44174H12.9817V4.14174H7.84959V4.44174ZM7.69959 1.66781V4.29174H7.99959V1.66781H7.69959ZM10.8262 1.51781H7.84959V1.81781H10.8262V1.51781ZM13.0976 4.19651L10.9421 1.57259L10.7102 1.76303L12.8658 4.38695L13.0976 4.19651ZM13.1317 4.29174V4.29173H12.8317V4.29174H13.1317ZM4.17675 1.81781H7.15332V1.51781H4.17675V1.81781ZM2.1371 4.38695L4.29265 1.76303L4.06084 1.57259L1.90529 4.19651L2.1371 4.38695ZM7.15332 4.14173H2.0212V4.44173H7.15332V4.14173ZM7.00332 1.66781V4.29173H7.30332V1.66781H7.00332ZM1.54627 4.95955V13.3322H1.84627V4.95955H1.54627ZM13.3037 4.80955H1.69627V5.10955H13.3037V4.80955ZM13.4537 13.3322V4.95955H13.1537V13.3322H13.4537ZM1.69627 13.4822H13.3037V13.1822H1.69627V13.4822ZM11.2323 7.17192H4.11291V7.47192H11.2323V7.17192ZM11.7304 7.65583C11.7304 7.3835 11.5007 7.17192 11.2323 7.17192V7.47192C11.3469 7.47192 11.4304 7.56086 11.4304 7.65583H11.7304ZM11.2323 8.13973C11.5007 8.13973 11.7304 7.92815 11.7304 7.65583H11.4304C11.4304 7.75078 11.3469 7.83973 11.2323 7.83973V8.13973ZM4.11291 8.13973H11.2323V7.83973H4.11291V8.13973ZM3.61477 7.65583C3.61477 7.92816 3.84456 8.13973 4.11291 8.13973V7.83973C3.99831 7.83973 3.91477 7.75079 3.91477 7.65583H3.61477ZM4.11291 7.17192C3.84456 7.17192 3.61477 7.38349 3.61477 7.65583H3.91477C3.91477 7.56085 3.99832 7.47192 4.11291 7.47192V7.17192ZM5.46485 9.03849H9.88038V8.73849H5.46485V9.03849ZM5.26672 9.22239C5.26672 9.12742 5.35025 9.03849 5.46485 9.03849V8.73849C5.19649 8.73849 4.96672 8.95006 4.96672 9.22239H5.26672ZM5.46485 9.4063C5.35026 9.4063 5.26672 9.31736 5.26672 9.22239H4.96672C4.96672 9.49471 5.19649 9.7063 5.46485 9.7063V9.4063ZM9.87749 9.4063H5.46485V9.7063H9.87749V9.4063ZM10.0756 9.22239C10.0756 9.31736 9.99207 9.4063 9.87749 9.4063V9.7063C10.1458 9.7063 10.3756 9.49471 10.3756 9.22239H10.0756ZM9.88038 9.03849C9.99331 9.03849 10.0756 9.12582 10.0756 9.22239H10.3756C10.3756 8.95166 10.1504 8.73849 9.88038 8.73849V9.03849ZM9.88038 10.3023H5.46485V10.6023H9.88038V10.3023ZM10.3756 10.7862C10.3756 10.5155 10.1504 10.3023 9.88038 10.3023V10.6023C9.99331 10.6023 10.0756 10.6896 10.0756 10.7862H10.3756ZM9.87749 11.2701C10.1458 11.2701 10.3756 11.0585 10.3756 10.7862H10.0756C10.0756 10.8811 9.99207 10.9701 9.87749 10.9701V11.2701ZM5.46485 11.2701H9.87749V10.9701H5.46485V11.2701ZM4.96672 10.7862C4.96672 11.0585 5.19649 11.2701 5.46485 11.2701V10.9701C5.35025 10.9701 5.26672 10.8811 5.26672 10.7862H4.96672ZM5.46485 10.3023C5.19649 10.3023 4.96672 10.5139 4.96672 10.7862H5.26672C5.26672 10.6912 5.35026 10.6023 5.46485 10.6023V10.3023Z" fill="white"/>
</mask>
<g mask="url(#mask0)">
</g>
</svg>
